<?xml version="1.0" encoding="iso-8859-1"?>
<!-- Generator: Adobe Illustrator 19.0.0, SVG Export Plug-In . SVG Version: 6.00 Build 0)  -->
<svg version="1.1" id="Capa_1" xmlns="http://www.w3.org/2000/svg" xmlns:xlink="http://www.w3.org/1999/xlink" x="0px" y="0px"
	 viewBox="0 0 512 512" style="enable-background:new 0 0 512 512;" xml:space="preserve">
<circle style="fill:#35CCFF;" cx="256" cy="256" r="256"/>
<path style="fill:#00BAFF;" d="M512,256c0-8.753-0.442-17.403-1.3-25.93L357.918,77.288L154.082,433.219l77.626,77.626
	C239.705,511.598,247.805,512,256,512C397.385,512,512,397.385,512,256z"/>
<rect x="154.08" y="77.29" style="fill:#333333;" width="203.84" height="355.93"/>
<rect x="256" y="77.29" style="fill:#1A1A1A;" width="101.92" height="355.93"/>
<rect x="175.51" y="98.98" style="fill:#FFFFFF;" width="160.98" height="278.58"/>
<rect x="256" y="98.98" style="fill:#E0E0E0;" width="80.49" height="278.58"/>
<circle style="fill:#4D4D4D;" cx="256" cy="403.69" r="15.941"/>
<path style="fill:#333333;" d="M256,387.748v31.882c8.804,0,15.941-7.137,15.941-15.941
	C271.941,394.885,264.804,387.748,256,387.748z"/>
<rect x="192" y="122" style="fill:#FF6838;" width="128" height="63"/>
<rect x="256" y="122" style="fill:#AE4E32;" width="64" height="63"/>
<rect x="192" y="212.38" style="fill:#999999;" width="128" height="20"/>
<rect x="256" y="212.38" style="fill:#808080;" width="64" height="20"/>
<rect x="192" y="249.81" style="fill:#999999;" width="128" height="20"/>
<rect x="256" y="249.81" style="fill:#808080;" width="64" height="20"/>
<rect x="192" y="287.23" style="fill:#999999;" width="128" height="20"/>
<rect x="256" y="287.23" style="fill:#808080;" width="64" height="20"/>
<rect x="192" y="324.65" style="fill:#999999;" width="128" height="20"/>
<rect x="256" y="324.65" style="fill:#808080;" width="64" height="20"/>
<g>
</g>
<g>
</g>
<g>
</g>
<g>
</g>
<g>
</g>
<g>
</g>
<g>
</g>
<g>
</g>
<g>
</g>
<g>
</g>
<g>
</g>
<g>
</g>
<g>
</g>
<g>
</g>
<g>
</g>
</svg>
